<?xml version="1.0" encoding="UTF-8" standalone="no"?>
<svg
   xmlns:dc="http://purl.org/dc/elements/1.1/"
   xmlns:cc="http://creativecommons.org/ns#"
   xmlns:rdf="http://www.w3.org/1999/02/22-rdf-syntax-ns#"
   xmlns:svg="http://www.w3.org/2000/svg"
   xmlns="http://www.w3.org/2000/svg"
   xmlns:sodipodi="http://sodipodi.sourceforge.net/DTD/sodipodi-0.dtd"
   xmlns:inkscape="http://www.inkscape.org/namespaces/inkscape"
   width="210mm"
   height="297mm"
   viewBox="0 0 210 297"
   version="1.1"
   id="svg8"
   inkscape:version="1.0 (4035a4fb49, 2020-05-01)"
   sodipodi:docname="futlink.svg">
  <defs
     id="defs2" />
  <sodipodi:namedview
     id="base"
     pagecolor="#ffffff"
     bordercolor="#666666"
     borderopacity="1.0"
     inkscape:pageopacity="0.0"
     inkscape:pageshadow="2"
     inkscape:zoom="0.49497475"
     inkscape:cx="573.33586"
     inkscape:cy="560"
     inkscape:document-units="mm"
     inkscape:current-layer="layer1"
     inkscape:document-rotation="0"
     showgrid="false"
     inkscape:showpageshadow="true"
     showborder="false"
     inkscape:snap-global="false"
     inkscape:window-width="1366"
     inkscape:window-height="705"
     inkscape:window-x="-8"
     inkscape:window-y="-8"
     inkscape:window-maximized="1">
    <inkscape:grid
       type="xygrid"
       id="grid833" />
  </sodipodi:namedview>
  <metadata
     id="metadata5">
    <rdf:RDF>
      <cc:Work
         rdf:about="">
        <dc:format>image/svg+xml</dc:format>
        <dc:type
           rdf:resource="http://purl.org/dc/dcmitype/StillImage" />
        <dc:title></dc:title>
      </cc:Work>
    </rdf:RDF>
  </metadata>
  <g
     inkscape:label="Layer 1"
     inkscape:groupmode="layer"
     id="layer1">
    <path
       inkscape:export-ydpi="45.045399"
       inkscape:export-xdpi="45.045399"
       style="color:#000000;font-style:normal;font-variant:normal;font-weight:normal;font-stretch:normal;font-size:medium;line-height:normal;font-family:sans-serif;font-variant-ligatures:normal;font-variant-position:normal;font-variant-caps:normal;font-variant-numeric:normal;font-variant-alternates:normal;font-variant-east-asian:normal;font-feature-settings:normal;font-variation-settings:normal;text-indent:0;text-align:start;text-decoration:none;text-decoration-line:none;text-decoration-style:solid;text-decoration-color:#000000;letter-spacing:normal;word-spacing:normal;text-transform:none;writing-mode:lr-tb;direction:ltr;text-orientation:mixed;dominant-baseline:auto;baseline-shift:baseline;text-anchor:start;white-space:normal;shape-padding:0;shape-margin:0;inline-size:0;clip-rule:nonzero;display:inline;overflow:visible;visibility:visible;opacity:1;isolation:auto;mix-blend-mode:normal;color-interpolation:sRGB;color-interpolation-filters:linearRGB;solid-color:#000000;solid-opacity:1;vector-effect:none;fill:#000000;fill-opacity:1;fill-rule:nonzero;stroke:none;stroke-width:2.58681;stroke-linecap:butt;stroke-linejoin:miter;stroke-miterlimit:4;stroke-dasharray:none;stroke-dashoffset:0;stroke-opacity:1;color-rendering:auto;image-rendering:auto;shape-rendering:auto;text-rendering:auto;enable-background:accumulate;stop-color:#000000;stop-opacity:1"
       d="m 113.62122,144.23166 -7.93591,6.21726 7.83383,8.18223 h 26.48094 l 2.98612,-2.64435 h -28.41899 l -5.02908,-5.25274 4.927,-3.85929 4.40198,-0.12197 1.60752,-2.52114 z"
       id="path839"
       sodipodi:nodetypes="ccccccccccc" />
    <path
       inkscape:export-ydpi="45.045399"
       inkscape:export-xdpi="45.045399"
       sodipodi:nodetypes="ccccccccccc"
       id="path841"
       d="m 142.4115,138.27454 -0.0627,-10.36122 -10.95731,1.70833 -15.75525,22.23068 0.25826,4.08014 16.90832,-23.85768 7.03426,-1.09669 0.0384,6.43236 -2.52516,3.76801 0.98367,2.8495 z"
       style="color:#000000;font-style:normal;font-variant:normal;font-weight:normal;font-stretch:normal;font-size:medium;line-height:normal;font-family:sans-serif;font-variant-ligatures:normal;font-variant-position:normal;font-variant-caps:normal;font-variant-numeric:normal;font-variant-alternates:normal;font-variant-east-asian:normal;font-feature-settings:normal;font-variation-settings:normal;text-indent:0;text-align:start;text-decoration:none;text-decoration-line:none;text-decoration-style:solid;text-decoration-color:#000000;letter-spacing:normal;word-spacing:normal;text-transform:none;writing-mode:lr-tb;direction:ltr;text-orientation:mixed;dominant-baseline:auto;baseline-shift:baseline;text-anchor:start;white-space:normal;shape-padding:0;shape-margin:0;inline-size:0;clip-rule:nonzero;display:inline;overflow:visible;visibility:visible;opacity:1;isolation:auto;mix-blend-mode:normal;color-interpolation:sRGB;color-interpolation-filters:linearRGB;solid-color:#000000;solid-opacity:1;vector-effect:none;fill:#000000;fill-opacity:1;fill-rule:nonzero;stroke:none;stroke-width:2.58681;stroke-linecap:butt;stroke-linejoin:miter;stroke-miterlimit:4;stroke-dasharray:none;stroke-dashoffset:0;stroke-opacity:1;color-rendering:auto;image-rendering:auto;shape-rendering:auto;text-rendering:auto;enable-background:accumulate;stop-color:#000000;stop-opacity:1" />
    <path
       inkscape:export-ydpi="45.045399"
       inkscape:export-xdpi="45.045399"
       style="color:#000000;font-style:normal;font-variant:normal;font-weight:normal;font-stretch:normal;font-size:medium;line-height:normal;font-family:sans-serif;font-variant-ligatures:normal;font-variant-position:normal;font-variant-caps:normal;font-variant-numeric:normal;font-variant-alternates:normal;font-variant-east-asian:normal;font-feature-settings:normal;font-variation-settings:normal;text-indent:0;text-align:start;text-decoration:none;text-decoration-line:none;text-decoration-style:solid;text-decoration-color:#000000;letter-spacing:normal;word-spacing:normal;text-transform:none;writing-mode:lr-tb;direction:ltr;text-orientation:mixed;dominant-baseline:auto;baseline-shift:baseline;text-anchor:start;white-space:normal;shape-padding:0;shape-margin:0;inline-size:0;clip-rule:nonzero;display:inline;overflow:visible;visibility:visible;opacity:1;isolation:auto;mix-blend-mode:normal;color-interpolation:sRGB;color-interpolation-filters:linearRGB;solid-color:#000000;solid-opacity:1;vector-effect:none;fill:#000000;fill-opacity:1;fill-rule:nonzero;stroke:none;stroke-width:2.58681;stroke-linecap:butt;stroke-linejoin:miter;stroke-miterlimit:4;stroke-dasharray:none;stroke-dashoffset:0;stroke-opacity:1;color-rendering:auto;image-rendering:auto;shape-rendering:auto;text-rendering:auto;enable-background:accumulate;stop-color:#000000;stop-opacity:1"
       d="m 136.93319,168.8649 9.28916,3.63661 2.3827,-11.30064 -14.25952,-23.30621 -3.74133,-1.20419 15.30313,25.01191 -1.52961,7.25466 -5.7666,-2.25817 -2.46879,-3.80856 -2.89958,-0.0572 z"
       id="path843"
       sodipodi:nodetypes="ccccccccccc" />
    <g
       inkscape:export-ydpi="45.045399"
       inkscape:export-xdpi="45.045399"
       id="g905"
       transform="matrix(0.16079129,0,0,0.16794239,124.17318,142.93811)">
      <g
         id="Pocket">
        <path
           id="path845"
           d="M 53.172897,14.3506 C 53.033195,13.0107 51.907299,12 50.554699,12 H 43 V 6 C 43,2.6914001 40.307701,0 36.9991,0 h -10 C 23.6914,0 21,2.6914001 21,6 v 6 h -7.5839 c -1.3682,0 -2.504901,1.022 -2.6436,2.377 L 6.0137,61.0313 C 5.9366,61.791 6.1875,62.5518 6.7021999,63.1143 7.2149,63.6768 7.9463,64 8.71,64 h 46.5117 c 0.781299,0 1.531299,-0.330101 2.061496,-0.910198 0.526402,-0.580002 0.782303,-1.359303 0.703202,-2.136704 v -9.99e-4 z M 23,6 c 0,-2.2056 1.794001,-4 3.9991,-4 h 10 C 39.205101,2 41,3.7944 41,6 v 6 H 23 Z M 55.804699,61.744099 C 55.655296,61.9063 55.443398,62 55.221699,62 H 8.71 C 8.5079002,62 8.3163995,61.916 8.1807003,61.766602 8.0479002,61.622101 7.9833999,61.428699 8.0038996,61.234402 L 12.7627,14.580101 C 12.7959,14.2495 13.0772,14 13.4161,14 H 21 v 5.183901 c -1.162201,0.4135 -2,1.5126 -2,2.816099 0,1.656099 1.344,3 3,3 1.656,0 3,-1.343901 3,-3 0,-1.303499 -0.837799,-2.4025 -2,-2.816099 V 14 h 18 v 5.183901 c -1.162201,0.4135 -2,1.5126 -2,2.816099 0,1.656099 1.344002,3 3,3 1.655998,0 3,-1.343901 3,-3 0,-1.303499 -0.837803,-2.4025 -2,-2.816099 V 14 h 7.554699 c 0.325199,0 0.595699,0.2397 0.627998,0.5566 l 4.813401,46.5997 c 0.0225,0.214801 -0.0488,0.429599 -0.191399,0.587799 z" />
        <path
           id="path847"
           d="M 38,53 H 26 c -0.5527,0 -1,0.4473 -1,1 0,0.5527 0.4473,1 1,1 h 12 c 0.552799,0 1,-0.4473 1,-1 0,-0.5527 -0.447201,-1 -1,-1 z" />
      </g>
      <g
         id="g850" />
      <g
         id="g852" />
      <g
         id="g854" />
      <g
         id="g856" />
      <g
         id="g858" />
      <g
         id="g860" />
      <g
         id="g862" />
      <g
         id="g864" />
      <g
         id="g866" />
      <g
         id="g868" />
      <g
         id="g870" />
      <g
         id="g872" />
      <g
         id="g874" />
      <g
         id="g876" />
      <g
         id="g878" />
    </g>
    <text
       inkscape:export-ydpi="45.045399"
       inkscape:export-xdpi="45.045399"
       transform="scale(0.6632978,1.5076185)"
       id="text855"
       y="103.13664"
       x="222.80336"
       style="font-style:normal;font-variant:normal;font-weight:normal;font-stretch:normal;font-size:14.2034px;line-height:1.25;font-family:Aeonik;-inkscape-font-specification:'Aeonik, Normal';font-variant-ligatures:normal;font-variant-caps:normal;font-variant-numeric:normal;font-variant-east-asian:normal;fill:#000000;fill-opacity:1;stroke:none;stroke-width:0.355086"
       xml:space="preserve"><tspan
         style="font-style:normal;font-variant:normal;font-weight:normal;font-stretch:normal;font-size:14.2034px;font-family:Aeonik;-inkscape-font-specification:'Aeonik, Normal';font-variant-ligatures:normal;font-variant-caps:normal;font-variant-numeric:normal;font-variant-east-asian:normal;stroke-width:0.355086"
         y="103.13664"
         x="222.80336"
         id="tspan853"
         sodipodi:role="line">Futlink Hardwares</tspan></text>
  </g>
</svg>
